<?xml version="1.0"?>
<svg version="1.1" xmlns="http://www.w3.org/2000/svg" width="110px" height="36px" style=""><path fill="#000000" d="M5.544,16.2q-2.034,0-3.492,1.458q-1.476,1.476-1.476,3.51l0,2.718q0,1.998,1.476,3.474t3.492,1.476q2.034,0,3.51-1.476q1.458-1.458,1.458-3.474l0-2.718q0-2.052-1.458-3.51t-3.51-1.458z M9.396,21.168l0,2.718q0,1.638-1.152,2.754q-1.134,1.08-2.7,1.08t-2.682-1.08q-1.152-1.116-1.152-2.754l0-2.718q0-1.512,1.152-2.7q1.152-1.152,2.682-1.152q1.512,0,2.7,1.152q1.152,1.188,1.152,2.7z M20.94912,17.298l-8.118,11.52l10.152,0l0-0.9l-8.118,0l8.118-11.736l-9.936,0l0,1.116l7.902,0z M31.35024,17.28l3.474,0l0-1.134l-3.474,0q-2.592,0-4.392,1.836q-1.818,1.854-1.818,4.626q0,2.574,1.818,4.392t4.392,1.818l2.304,0l1.17,0l0-1.152l0-5.76l-1.17,0l-2.754,0l0,1.152l2.754,0l0,4.608l-2.304,0q-2.052,0-3.546-1.494t-1.494-3.564q0-2.25,1.494-3.798q1.476-1.53,3.546-1.53z M38.54736,25.344q0-0.864,0.612-1.566q0.612-0.738,1.476-0.738l0.234,0l3.366,0l0-1.116l-3.366,0l-0.234,0q-0.918-0.18-1.503-0.792t-0.585-1.458q0-1.062,0.621-1.683t1.701-0.621l6.12,0l0-1.134l-6.12,0q-1.386,0-2.412,1.026q-1.026,0.99-1.026,2.412q0,0.9,0.342,1.638t1.008,1.062q-0.666,0.486-1.008,1.278t-0.342,1.692q0,1.404,1.026,2.394q1.044,1.044,2.412,1.044l6.12,0l0-1.188l-6.12,0q-1.08,0-1.701-0.612t-0.621-1.638z M54.13248,16.2q-2.034,0-3.492,1.458q-1.476,1.476-1.476,3.51l0,2.718q0,1.998,1.476,3.474t3.492,1.476q2.034,0,3.51-1.476q1.458-1.458,1.458-3.474l0-2.718q0-2.052-1.458-3.51t-3.51-1.458z M57.98448,21.168l0,2.718q0,1.638-1.152,2.754q-1.134,1.08-2.7,1.08t-2.682-1.08q-1.152-1.116-1.152-2.754l0-2.718q0-1.512,1.152-2.7q1.152-1.152,2.682-1.152q1.512,0,2.7,1.152q1.152,1.188,1.152,2.7z M61.7436,28.8l1.116,0l0-7.632q0-1.512,1.152-2.7q1.152-1.152,2.664-1.152t2.7,1.152q1.152,1.188,1.152,2.7l0,7.632l1.116,0l0-7.632q0-2.052-1.458-3.51t-3.51-1.458q-2.016,0-3.474,1.458t-1.458,3.51l0,7.632z M74.44872,28.836l8.802,0l0-0.918l-7.686,0l0-11.718l-1.116,0l0,12.636z M85.40784,28.818l1.134,0l0-12.654l-1.134,0l0,12.654z M89.32896,28.8l1.116,0l0-7.632q0-1.512,1.152-2.7q1.152-1.152,2.664-1.152t2.7,1.152q1.152,1.188,1.152,2.7l0,7.632l1.116,0l0-7.632q0-2.052-1.458-3.51t-3.51-1.458q-2.016,0-3.474,1.458t-1.458,3.51l0,7.632z M103.02408,25.344q0-0.864,0.612-1.566q0.612-0.738,1.476-0.738l0.234,0l3.366,0l0-1.116l-3.366,0l-0.234,0q-0.918-0.18-1.503-0.792t-0.585-1.458q0-1.062,0.621-1.683t1.701-0.621l6.12,0l0-1.134l-6.12,0q-1.386,0-2.412,1.026q-1.026,0.99-1.026,2.412q0,0.9,0.342,1.638t1.008,1.062q-0.666,0.486-1.008,1.278t-0.342,1.692q0,1.404,1.026,2.394q1.044,1.044,2.412,1.044l6.12,0l0-1.188l-6.12,0q-1.08,0-1.701-0.612t-0.621-1.638z"/><path fill="#" d=""/></svg>
